<svg xmlns="http://www.w3.org/2000/svg" width="22" height="22" viewBox="0 0 22 22">
    <path data-name="패스 6858" d="M906.735 646.081a4.989 4.989 0 1 0-3.53-1.461 4.842 4.842 0 0 0 3.53 1.461" transform="translate(-895.974 -634.98)" style="fill:#ccc"/>
    <path data-name="패스 6859" d="M831.794 889.326a13.09 13.09 0 0 0-.166-1.312 10.452 10.452 0 0 0-.324-1.316 6.325 6.325 0 0 0-.542-1.226 4.662 4.662 0 0 0-.818-1.064 3.641 3.641 0 0 0-1.174-.737 4.087 4.087 0 0 0-1.5-.271 1.5 1.5 0 0 0-.81.344l-.846.546a4.76 4.76 0 0 1-1.093.482 4.266 4.266 0 0 1-2.671 0 4.759 4.759 0 0 1-1.093-.482c-.316-.2-.6-.384-.846-.546a1.508 1.508 0 0 0-.81-.344 4.09 4.09 0 0 0-1.5.271 3.642 3.642 0 0 0-1.174.737 4.669 4.669 0 0 0-.818 1.064 6.462 6.462 0 0 0-.542 1.226 10.484 10.484 0 0 0-.324 1.316 11.1 11.1 0 0 0-.166 1.312c-.028.4-.04.809-.04 1.222a3.444 3.444 0 0 0 1.02 2.6 3.7 3.7 0 0 0 2.639.963h9.977a3.7 3.7 0 0 0 2.635-.959 3.431 3.431 0 0 0 1.024-2.6c0-.421-.016-.83-.044-1.226" transform="translate(-812.304 -872.27)" style="fill:#ccc"/>
</svg>
