<svg xmlns="http://www.w3.org/2000/svg" width="772" height="1080" viewBox="0 0 772 1080">
    <defs>
        <clipPath id="aj7gztz6ma">
            <path data-name="사각형 8478" style="opacity:.05;fill:#ffa300;stroke:#707070" d="M0 0h772v1080H0z"/>
        </clipPath>
    </defs>
    <g style="clip-path:url(#aj7gztz6ma)">
        <g data-name="그룹 8716" style="opacity:.4">
            <path data-name="패스 7038" d="m300.645 305.871 272.484-157.319a139.848 139.848 0 0 0-41.829-37.036L370.633 18.753a139.982 139.982 0 0 0-139.976 0L69.988 111.516a139.848 139.848 0 0 0-41.827 37.036z" transform="translate(428 -311.953)" style="fill:#f69d00"/>
            <path data-name="패스 7039" d="M283.645 335.316 11.161 178A139.829 139.829 0 0 0 0 232.738v185.525a139.976 139.976 0 0 0 69.988 121.223l160.669 92.762a139.836 139.836 0 0 0 52.988 17.705z" transform="translate(428 -311.953)" style="fill:#f69d00"/>
            <path data-name="패스 7040" d="M317.645 335.316v314.637a139.836 139.836 0 0 0 52.988-17.705L531.3 539.486a139.976 139.976 0 0 0 69.99-121.223V232.738A139.832 139.832 0 0 0 590.129 178z" transform="translate(428 -311.953)" style="fill:#f69d00"/>
        </g>
        <g data-name="그룹 8717" style="opacity:.05">
            <path data-name="패스 7038" d="m300.645 305.871 272.484-157.319a139.848 139.848 0 0 0-41.829-37.036L370.633 18.753a139.982 139.982 0 0 0-139.976 0L69.988 111.516a139.848 139.848 0 0 0-41.827 37.036z" transform="translate(-280.645 717.32)" style="fill:#f69d00"/>
            <path data-name="패스 7039" d="M283.645 335.316 11.161 178A139.829 139.829 0 0 0 0 232.738v185.525a139.976 139.976 0 0 0 69.988 121.223l160.669 92.762a139.836 139.836 0 0 0 52.988 17.705z" transform="translate(-280.645 717.32)" style="fill:#f69d00"/>
            <path data-name="패스 7040" d="M317.645 335.316v314.637a139.836 139.836 0 0 0 52.988-17.705L531.3 539.486a139.976 139.976 0 0 0 69.99-121.223V232.738A139.832 139.832 0 0 0 590.129 178z" transform="translate(-280.645 717.32)" style="fill:#f69d00"/>
        </g>
    </g>
</svg>
